Patient4_TMGait_0pt6_02_left_37_EMG.mot
version=1
nRows=30
nColumns=33
inDegrees=no
endheader
time	1LAddLong	2LGlutMax	3LGlutMed	4LIliopsoas	5LSemiMemb	6LBicFemLong	7LRecFem	8LVastMed	9LVastLat	10LGasMed	11LTibAnt	12lTibPost	13LPeroneusLong	14LSol	15LExtDigLong	16LFlexDigLong	17RAddLong	18RGlutMax	19RGlutMed	20RIliopsoas	21RSemiMemb	22RBicFemLong	23RRecFem	24RVastMed	25RVastLat	26RGasMed	27RTibAnt	28RTibPost	29RPeroneusLong	30RSol	31RExtDigLong	32RFlexDigLong
45.16	0.001526	0.84274	0.009308	0.006866	0.019684	-0.008392	0.016022	0.032349	-0.53802	-0.016785	0.13657	0.046997	0.021973	0.10284	0.5748	0.013123	-0.011444	-0.11078	-0.10071	0.008392	-0.035553	0.71137	0.018616	-0.051422	0.47333	0.001373	-0.83267	-0.007782	-0.70297	0.22903	0.000153	-0.011749
45.161	0.006561	0.77026	-0.005951	0.012054	0.019989	0.001373	0.075378	0.036469	-0.5101	-0.043182	0.13794	0.054932	0.032501	0.11505	0.089111	0.017853	-0.010376	-0.074768	0.17227	0.025635	-0.041504	0.65247	-0.45136	-0.24597	0.26794	0.006714	-0.47165	0.000305	-0.87784	-0.003052	0.000916	-0.005493
45.162	0.003662	0.737	-0.028076	0.037384	-0.004272	-0.003815	0.080719	0.035553	-0.46448	-0.072632	-0.057526	0.069885	0.10101	0.085144	-0.31967	0.02533	-0.006409	-0.1471	-0.079956	-0.015259	-0.041199	0.22827	-0.67734	-0.24582	0.17517	-0.011902	-0.046692	0.008087	-1.0344	0.080719	0.001831	-0.009766
45.163	0.008392	0.71121	-0.017548	0.054016	0.011292	-0.00885	0.10559	0.03418	-0.40695	-0.085297	0.032196	0.075989	0.12772	0.058441	0.13336	0.0354	-0.000916	0.014038	0.24078	-0.17685	-0.051117	-0.15701	-0.43915	0.11292	0.057831	-0.028229	-0.11597	0.001984	1.4897	0.25543	0.002136	-0.002136
45.164	0.010223	0.66803	-0.01709	0.031281	0.005646	0.021667	0.10315	0.033875	-0.34607	-0.054016	0.080566	0.083466	0.049286	0.096588	0.48904	0.029449	0.011749	0.015869	0.84778	-0.2214	-0.062561	-0.14862	-0.21271	0.32516	-0.47302	-0.014343	-0.072174	-0.003967	1.1281	0.26398	0.002899	0.005798
45.165	0.006714	0.62393	0.017395	-0.003204	-0.001221	0.031128	0.098267	0.031433	-0.31479	0.009918	0.052185	0.066681	-0.047607	0.084534	-0.45425	0.027924	0.041046	0.016785	0.41718	-0.10864	-0.12695	-0.070038	0.027466	0.1976	-0.93124	-0.012054	0.40558	-0.008087	-0.25497	0.26245	0.001373	0.002747
45.166	0.008545	0.59692	0.001526	-0.008698	-0.016174	0.022583	0.067139	0.03006	-0.26123	0.022736	0.077209	0.063019	-0.040131	0.076599	-0.6131	0.032043	0.035248	-0.00885	0.089417	-0.005341	-0.16327	0.093079	0.18372	0.092926	-0.83618	-0.010681	0.23621	-0.004425	0.063477	0.22797	-0.000153	0.000305
45.167	0.005951	0.54962	-0.02533	0.013123	-0.032806	-0.018768	0.073395	0.027618	-0.24399	0.011749	-0.001221	0.06012	0.018158	0.01358	-0.4097	0.030823	0.024261	0.0354	0.4332	0.1358	-0.18494	0.093994	0.11597	-0.019073	-0.38513	-0.018616	0.086975	0.004883	1.2242	0.36087	0.001831	-0.003204
45.168	0.005646	0.53451	0.00412	0.006866	0.006256	-0.063019	0.11597	0.027618	-0.22827	0.023346	-0.18814	0.065613	0.042419	-0.035095	-0.25146	0.032654	0.028381	-0.033264	-0.19974	0.21027	-0.1973	0.024719	0.051727	0.016327	-0.23193	-0.021973	0.28824	-0.001831	0.24704	0.25223	0.000305	-0.002747
45.169	0.014343	0.48996	0.018768	0.010834	0.001831	-0.054779	0.14618	0.020599	-0.18997	0.027618	-0.26794	0.066071	0.020905	-0.015869	-0.36057	0.015411	0.035095	-0.047607	0.29129	0.17578	-0.15869	-0.015411	0.10819	0.09964	-0.19028	-0.009766	0.41992	-0.004578	-0.028992	0.12817	0.000458	-0.007935
45.17	0.01297	0.41855	-0.003967	0.016785	0.012207	-0.058289	0.1619	0.024414	-0.12451	0.017395	-0.11841	0.053253	0.016022	0.043488	-0.19852	0.019684	0.017242	0.016174	0.32425	0.068817	-0.010834	-0.059357	0.098572	0.093384	-0.16403	-0.003357	0.38864	-0.001068	0.050659	0.12299	-0.003662	-0.002747
45.171	0.014496	0.35233	-0.060272	0.001068	0.016479	-0.068665	0.14557	0.021362	-0.074768	-0.011292	0.064545	0.050659	0.06546	0.070648	0.20737	0.029907	-0.012817	-0.055389	0.16312	-0.033264	0.017395	-0.2121	-0.092621	0.066071	-0.046387	0.01297	0.21576	-0.004578	-0.439	-0.098114	0.001678	0.00351
45.172	0.010529	0.34561	-0.023804	-0.033722	-0.009308	-0.066071	0.11978	0.028229	-0.02655	-0.011749	0.20996	0.039215	0.091705	0.11414	-0.083923	0.018005	-0.022583	-0.054321	0.031433	-0.17075	-0.003204	-0.41809	-0.11002	0.016632	0.030518	0.032349	0.066833	-0.001526	-0.15137	-0.17197	0.002747	0.009308
45.173	0.009918	0.3064	-0.02121	-0.01709	0.000916	-0.048218	0.10498	0.028534	0.034027	-0.019684	0.13138	0.03952	0.09552	0.087433	0.47302	0.016327	-0.002747	0.053101	0.15182	-0.23117	0.028534	-0.25848	0.049591	-0.049286	-0.001984	0.021515	-0.28732	-0.007782	0.93735	0.030975	-0.000305	-0.007629
45.174	0.012054	0.30395	-0.014191	0.013275	0.007324	-0.030518	0.093079	0.022278	0.062256	-0.007019	-0.069885	0.030975	0.068054	0.012512	0.81268	0.009613	-0.005798	0.11139	0.29007	-0.11505	0.031586	-0.11932	0.21271	0.050354	-0.024567	0.009766	-0.36316	-0.011139	-0.013123	0.16342	0.00061	-0.007629
45.175	0.010529	0.27786	-0.014038	0.028839	0.016174	-0.009308	0.10284	0.023651	0.074921	0.010071	-0.043488	0.033722	0.015411	0.027466	0.55023	0.007019	-0.053406	0.06897	0.27435	0.027771	0.054016	0.12497	0.041351	0.080414	-0.008392	-0.073547	-0.14099	-0.006714	-0.49393	0.26321	0.005035	-0.007019
45.176	0.012054	0.24017	-0.001984	0.021515	-0.01358	0.005341	0.11749	0.027161	0.090332	-0.046997	0.13153	0.034332	0.063324	0.040588	-0.37506	0.007019	-0.052795	0.093079	0.51193	-0.000763	-0.001221	0.17578	-0.10651	0.053253	0.022736	-0.067139	0.071106	-0.005188	-1.1331	0.23941	0.002747	-0.012665
45.177	0.008087	0.1506	-0.014801	0.036774	-0.0177	0.038605	0.12054	0.022888	0.10834	-0.083313	0.16449	0.023499	0.15335	0.06485	-0.7547	0.005188	-0.048828	0.027924	0.48492	-0.085754	0.031128	-0.19836	-0.14038	0.12161	0.016937	-0.02655	0.074921	-0.002136	-0.90195	0.32867	0.000763	-0.015411
45.178	0.010376	0.14679	0.015259	0.022736	-0.021057	0.019226	0.13901	0.028687	0.12634	-0.055695	0.042725	0.020294	0.14206	0.018921	-0.64651	0.013733	-0.046082	-0.042877	0.20676	-0.053253	0.018311	-0.33081	-0.30731	0.13962	0.095062	-0.015564	0.005188	-0.000305	0.52368	0.28381	0.002289	-0.000153
45.179	0.013885	0.15579	0.02655	0.019073	-0.008698	0.001526	0.14358	0.021667	0.14755	0.018005	0.058746	0.016785	0.045776	-0.063934	-0.27023	-0.01297	-0.015869	0.053253	0.5896	0.081024	-0.045319	-0.32532	-0.2623	0.079041	0.16449	-0.014648	-0.10162	0.014496	0.85709	0.22339	0.003052	-0.010071
45.18	0.011292	0.10422	0.006256	0.001221	0.003662	0.02594	0.13184	0.021515	0.15656	0.032959	-0.12039	0.009003	-0.009155	-0.033417	-0.020905	0.00351	0.007019	0.054779	0.10315	0.23025	-0.067596	-0.1619	-0.010681	-0.040588	0.082703	-0.002899	-0.089722	0.016785	-0.51483	0.07782	-0.002136	0.002594
45.181	0.010986	0.08728	-0.009613	0.000305	0.006866	0.013885	0.13718	0.019684	0.1683	0.024261	0.13367	0.003052	0.027313	-0.044708	-0.15228	0.000916	0.003967	0.020447	-0.14893	0.077667	-0.057831	0.070038	0.036316	-0.1796	0.032501	-0.001678	0.040283	-0.007782	-0.26871	-0.30731	-0.000305	0.000916
45.182	0.007477	0.059967	-0.024567	-0.0177	0.027618	0.001831	0.12436	0.02243	0.19134	-0.026703	0.082703	0.003815	0.14832	-0.035553	-0.35584	0.009918	0.00351	0.072937	-0.41367	-0.068817	-0.031128	0.46829	0.10757	-0.26947	-0.008545	-0.018311	0.12726	-0.11993	-0.087738	-0.32974	-0.002899	0.001373
45.183	0.004272	0.040588	-0.028076	-0.009155	0.004272	-0.002899	0.13245	0.021057	0.22827	-0.009003	-0.069733	0.00473	0.121	-0.027924	-0.22919	0.010834	0.00885	0.035706	-0.57816	0.037842	-0.001831	0.6221	0.29098	-0.20584	-0.056763	-0.002899	-0.028687	0.007172	1.0902	0.064392	-0.00473	-0.001526
45.184	0.006714	0.007019	-0.025024	0.015411	-0.033417	-0.017548	0.12466	0.019073	0.2243	0.039673	-0.063477	-0.010376	0.039063	-0.10346	-0.041351	-0.004578	0.005341	-0.011902	-0.47348	0.19867	0.004883	0.83588	0.4039	-0.14175	-0.010376	0.000153	0.36118	0.000305	-0.22049	0.17899	0.000153	0.003662
45.185	0.007782	-0.022125	-0.032349	0.019226	0.008545	-0.009918	0.13855	0.019226	0.22644	0.00412	-0.035095	-0.006256	0.059509	-0.090179	0.093842	0.005646	-0.001678	-0.000458	0.19684	0.20508	0.033569	0.81573	0.38376	-0.1207	0.27939	0.028839	0.59341	-0.028229	0.73944	0.14725	0.002594	-0.001984
45.186	0.013123	-0.000763	-0.040283	0.010071	-0.014038	-0.035858	0.12985	0.022125	0.22858	-0.07843	-0.030975	-0.020294	0.10391	-0.024261	0.18173	0.003204	-0.028381	-0.038147	0.43137	0.19241	0.04837	0.38574	0.21759	0.083771	0.43289	0.039825	0.46173	0.094147	0.66162	-0.056305	-0.001984	-0.001068
45.187	0.022278	-0.017548	-0.01297	-0.007324	0.012665	-0.037079	0.14114	0.012665	0.22003	-0.087585	-0.014191	-0.014191	0.15503	0.050049	0.41092	-0.00885	-0.029907	-0.099335	0.49377	-0.015869	0.02243	0.18051	0.00824	0.068359	0.3801	0.027008	0.38544	0.041046	-1.5994	-0.55206	-0.00824	0.003052
45.188	0.011292	-0.0354	-0.030212	-0.001526	0.02121	-0.001984	0.14297	0.016174	0.21011	-0.052338	-0.062866	-0.016632	0.11093	0.033112	0.19943	0.001678	-0.024109	-0.028687	0.39719	-0.12985	0.005646	-0.12344	-0.23224	-0.02121	0.29098	0.00824	0.19134	0.001678	-1.7224	-0.49042	-0.002747	0.011902
45.189	-0.04776	-0.021515	-0.041656	-0.010376	0.015564	0.04425	0.15045	0.022583	0.2034	0.0177	-0.17029	-0.023956	0.081024	-0.018616	0.025177	-0.004425	-0.034027	-0.037689	-0.14145	-0.15793	0	-0.30426	-0.6807	-0.031586	0.215	-0.000153	-0.8493	-0.005798	-0.27573	-0.24811	0.002441	0.006104
